# xmcd
#
# Track frame offsets:
#  150
#  18306
#  36984
#  53319
#  67411
#  78839
#  98571
#  117406
#  130174
#  142371
#  156204
#  172621
#  186016
#  200031
#  214761
#
# Disc length: 3109 seconds
#
# Revision: 0
# Processed by: cddbd v1.4PL0 Copyright (c) Steve Scherf et al.
# Submitted via: AltoMP3_Maker 3.0
#
DISCID=d00c230f
DTITLE=Diversos - Sertanejo Sem Limites
DYEAR=1900
DGENRE=
TTITLE0=Deslizes
TTITLE1=Você Virou Saudade
TTITLE2=Esperando na Janela
TTITLE3=Cunhada Boa
TTITLE4=Ginete da Paixão
TTITLE5=A Jiripoca Vai Piá
TTITLE6=Chora no Meu Colo
TTITLE7=Rebola
TTITLE8=É Prá Quebrar a Cama
TTITLE9=Rodopiou
TTITLE10=A Gente se Entrega
TTITLE11=Xonado Eu Tô
TTITLE12=O Primeiro Pecado
TTITLE13=Gostosa Mania
TTITLE14=Meu País
EXTD=
EXTT0=
EXTT1=
EXTT2=
EXTT3=
EXTT4=
EXTT5=
EXTT6=
EXTT7=
EXTT8=
EXTT9=
EXTT10=
EXTT11=
EXTT12=
EXTT13=
EXTT14=
PLAYORDER=
